<?xml version="1.0" encoding="UTF-8"?>
<svg viewBox="0 0 1200 400" xmlns="http://www.w3.org/2000/svg">
  <!-- Background -->
  <rect width="1200" height="400" fill="#1c1c1c"/>
  
  <!-- Scattered circles -->
  <circle cx="100" cy="50" r="4" fill="#f8f8ff" opacity="0.8"/>
  <circle cx="180" cy="120" r="3" fill="#f8f8ff" opacity="0.6"/>
  <circle cx="250" cy="80" r="5" fill="#f8f8ff" opacity="0.7"/>
  <circle cx="320" cy="150" r="4" fill="#f8f8ff" opacity="0.9"/>
  <circle cx="390" cy="70" r="3" fill="#f8f8ff" opacity="0.8"/>
  <circle cx="450" cy="180" r="5" fill="#f8f8ff" opacity="0.7"/>
  <circle cx="520" cy="100" r="4" fill="#f8f8ff" opacity="0.6"/>
  <circle cx="590" cy="40" r="3" fill="#f8f8ff" opacity="0.8"/>
  <circle cx="660" cy="200" r="5" fill="#f8f8ff" opacity="0.7"/>
  <circle cx="730" cy="90" r="4" fill="#f8f8ff" opacity="0.9"/>
  <circle cx="800" cy="160" r="3" fill="#f8f8ff" opacity="0.6"/>
  <circle cx="870" cy="60" r="5" fill="#f8f8ff" opacity="0.8"/>
  <circle cx="940" cy="190" r="4" fill="#f8f8ff" opacity="0.7"/>
  <circle cx="1010" cy="120" r="3" fill="#f8f8ff" opacity="0.6"/>
  <circle cx="1080" cy="50" r="5" fill="#f8f8ff" opacity="0.9"/>
  <circle cx="1150" cy="170" r="4" fill="#f8f8ff" opacity="0.8"/>
  
  <!-- Larger circles in purple shades -->
  <circle cx="150" cy="250" r="18" fill="#360269" opacity="0.7"/>
  <circle cx="400" cy="220" r="25" fill="#4F1C82" opacity="0.6"/>
  <circle cx="650" cy="280" r="20" fill="#653592" opacity="0.8"/>
  <circle cx="900" cy="240" r="22" fill="#360269" opacity="0.7"/>
  <circle cx="1100" cy="300" r="28" fill="#4F1C82" opacity="0.6"/>
  
  <!-- Scattered squares -->
  <rect x="120" y="180" width="10" height="10" fill="#653592" opacity="0.7"/>
  <rect x="280" y="220" width="8" height="8" fill="#4F1C82" opacity="0.8"/>
  <rect x="470" y="250" width="12" height="12" fill="#360269" opacity="0.6"/>
  <rect x="620" y="190" width="9" height="9" fill="#653592" opacity="0.8"/>
  <rect x="780" y="270" width="11" height="11" fill="#4F1C82" opacity="0.7"/>
  <rect x="950" y="320" width="7" height="7" fill="#360269" opacity="0.8"/>
  <rect x="1050" y="240" width="10" height="10" fill="#653592" opacity="0.6"/>
  
  <!-- Scattered triangles -->
  <polygon points="200,320 210,300 220,320" fill="#4F1C82" opacity="0.7"/>
  <polygon points="350,290 365,315 335,315" fill="#653592" opacity="0.6"/>
  <polygon points="500,340 510,310 520,340" fill="#360269" opacity="0.8"/>
  <polygon points="700,310 715,335 685,335" fill="#4F1C82" opacity="0.7"/>
  <polygon points="850,330 860,300 870,330" fill="#653592" opacity="0.6"/>
  <polygon points="1000,300 1015,325 985,325" fill="#360269" opacity="0.8"/>
  
  <!-- A few special larger elements -->
  <polygon points="250,130 280,180 220,180" fill="#653592" opacity="0.5"/>
  <rect x="540" y="140" width="30" height="30" fill="#4F1C82" opacity="0.5" transform="rotate(45, 555, 155)"/>
  <circle cx="820" cy="150" r="25" fill="#360269" opacity="0.5"/>
  <polygon points="1080,140 1110,190 1050,190" fill="#653592" opacity="0.5"/>
</svg>